<?xml version="1.0" encoding="utf-8"?>
<!DOCTYPE svg PUBLIC "-//W3C//DTD SVG 1.0//EN" "http://www.w3.org/TR/2001/REC-SVG-20010904/DTD/svg10.dtd">
<svg version="1.0" xmlns="http://www.w3.org/2000/svg" width="499px" height="499px" viewBox="0 0 499 499" preserveAspectRatio="xMidYMid meet">
 <g fill="rgba(0,0,0,0.1)">
  <path d="M246.53 446.76 c-2.14 -6.72 -5.21 -9.89 -11.70 -12.04 l-4.09 -1.36 0 -2.10 0 -2.10 2.92 -0.83 c7.46 -2.05 10.72 -5.36 13.21 -13.25 l0.88 -2.83 2.05 0 c2 0 2.05 0 2.63 2.34 2.05 7.36 6.09 11.60 13.16 13.74 l2.68 0.78 0.15 2.24 0.15 2.24 -2 0.34 c-2.97 0.49 -8.48 3.46 -9.84 5.26 -1.71 2.24 -3.12 5.07 -4.04 8.28 l-0.78 2.78 -2.14 0 -2.14 0 -1.07 -3.51z"/>
  <path d="M201.50 445.30 c-2.73 -7.94 -4.43 -9.55 -12.28 -11.89 -0.68 -0.19 -0.83 -2.49 -0.34 -3.80 0.15 -0.44 0.78 -0.78 1.36 -0.78 1.51 -0.05 5.21 -1.80 6.82 -3.31 1.46 -1.41 4.19 -6.58 4.19 -7.99 0 -0.73 0.44 -0.88 2.19 -0.88 2.14 0 2.14 0.05 2.73 2.10 1.46 5.56 4.87 8.92 9.84 9.84 1.80 0.34 1.80 0.39 1.80 2.68 l0 2.34 -2.29 0.54 c-5.26 1.32 -7.85 4 -9.36 9.70 -0.54 1.95 -0.63 2.05 -2.53 2.05 -1.12 0 -2 -0.24 -2.14 -0.58z"/>
  <path d="M293.45 445.06 c-0.24 -0.49 -0.73 -1.75 -1.07 -2.83 -1.41 -4.48 -3.51 -6.43 -8.67 -8.04 -2.53 -0.78 -2.78 -0.97 -2.92 -2.39 -0.19 -1.75 0.58 -2.97 1.85 -2.97 0.44 0 2.14 -0.68 3.75 -1.46 3.36 -1.66 5.02 -3.70 6.38 -7.80 0.88 -2.58 0.97 -2.68 2.88 -2.83 l1.95 -0.15 0.88 2.97 c1.46 4.82 5.02 8.19 9.65 9.02 1.80 0.34 1.80 0.39 1.80 2.73 0 1.75 -0.19 2.39 -0.73 2.39 -0.39 0 -1.90 0.44 -3.41 1.02 -3.85 1.46 -5.85 3.61 -7.11 7.75 l-1.02 3.41 -1.90 0 c-1.27 0 -2 -0.24 -2.29 -0.83z"/>
  <path d="M159.59 437.01 c-1.75 -1.02 -2.14 -2.05 -2.19 -5.41 0 -2.88 0.15 -3.46 1.22 -4.48 1.02 -1.07 1.61 -1.22 4.39 -1.22 2.78 0 3.36 0.15 4.39 1.22 1.07 1.02 1.22 1.61 1.22 4.53 0 4.68 -0.78 5.60 -4.92 5.80 -1.85 0.10 -3.51 -0.05 -4.09 -0.44z"/>
  <path d="M331.81 436.19 c-1.22 -1.27 -1.41 -1.80 -1.41 -4.19 0 -2.88 0.93 -5.31 2.19 -5.80 0.44 -0.15 2.10 -0.29 3.61 -0.29 3.75 0 5.21 1.12 5.70 4.19 0.39 2.78 -0.44 5.75 -1.90 6.77 -0.63 0.44 -2.14 0.73 -3.90 0.73 -2.49 0 -3.02 -0.19 -4.29 -1.41z"/>
  <path d="M424.54 395.69 c-9.50 -1.36 -16.42 -4.63 -22.56 -10.72 -7.02 -6.97 -9.70 -13.99 -9.70 -25.53 0 -7.50 0.78 -11.50 3.07 -16.52 5.07 -10.92 13.64 -17.74 26.02 -20.66 2.88 -0.68 5.65 -0.88 11.60 -0.83 8.53 0 12.57 0.73 19.74 3.46 l3.65 1.41 0 9.21 0 9.26 -2.53 0.15 -2.53 0.15 -1.27 -2.73 c-3.80 -8.04 -12.96 -13.16 -20.61 -11.55 -4.39 0.93 -8.48 3.17 -11.26 6.24 -3.17 3.46 -4.53 5.80 -6.19 10.67 -1.22 3.51 -1.36 4.53 -1.36 10.48 0.05 5.80 0.19 7.07 1.32 10.48 3.02 9.21 9.31 15.40 17.88 17.59 7.07 1.80 15.16 -1.95 21.10 -9.84 2.34 -3.07 2.39 -3.12 4.78 -3.12 l2.39 0 0 2.58 c0 2.34 -1.32 13.99 -1.61 14.28 -0.54 0.58 -9.65 3.85 -12.77 4.63 -4.53 1.07 -14.57 1.56 -19.15 0.93z"/>
  <path d="M186.05 394.18 c-1.27 -1.32 -15.74 -18.66 -29.63 -35.52 -5.17 -6.29 -9.60 -11.65 -9.84 -11.94 -0.29 -0.29 -0.39 6.68 -0.29 18.03 0.19 21.78 0.10 21.44 4.92 23.78 2.58 1.27 2.78 1.46 2.78 3.02 0 3.31 0.63 3.17 -12.48 3.17 l-11.89 0 0 -2.58 0 -2.58 2.44 -1.02 c2.10 -0.88 2.63 -1.41 3.56 -3.41 1.02 -2.29 1.07 -2.92 1.22 -22.32 0.10 -10.96 -0.05 -22.03 -0.29 -24.51 -0.39 -3.90 -0.68 -4.78 -1.90 -6.33 -0.78 -0.97 -2.49 -2.29 -3.75 -2.92 l-2.29 -1.12 0.15 -2.53 0.15 -2.53 11.01 -0.15 11.01 -0.10 0.88 1.32 c1.07 1.66 10.23 12.96 21.39 26.46 4.53 5.51 9.60 11.60 11.21 13.60 l2.97 3.61 0.15 -14.57 c0.10 -8.04 0 -15.69 -0.15 -17.10 -0.49 -3.95 -2.68 -6.48 -6.68 -7.65 -0.68 -0.19 -0.88 -0.83 -0.88 -2.97 l0 -2.68 12.18 0 12.23 0 -0.15 2.78 c-0.15 2.58 -0.24 2.78 -1.61 3.22 -2.19 0.68 -4 2.63 -4.58 4.97 -0.34 1.41 -0.54 11.84 -0.54 31.38 0 22.85 -0.15 29.34 -0.58 29.63 -0.34 0.19 -2.63 0.44 -5.12 0.54 -4.19 0.19 -4.53 0.15 -5.60 -0.93z"/>
  <path d="M41.91 392.09 c0 -2.58 0.05 -2.68 1.61 -3.17 2.10 -0.73 4.14 -2.83 4.73 -4.97 0.63 -2.19 0.63 -48.34 0 -50.68 -0.58 -2 -2.53 -4 -4.63 -4.68 -1.36 -0.44 -1.46 -0.58 -1.46 -3.12 l0 -2.63 26.17 -0.15 c24.56 -0.10 26.22 -0.05 26.61 0.73 0.29 0.49 0.54 4.73 0.63 9.40 l0.19 8.53 -2.53 0.15 -2.53 0.15 -1.22 -2.34 c-1.51 -3.02 -5.02 -6.24 -7.41 -6.92 -2.68 -0.73 -15.45 -0.68 -16.18 0.05 -0.44 0.44 -0.58 3.51 -0.58 10.72 l0 10.14 6.48 0 c7.75 0 9.11 -0.54 10.72 -4.43 l1.02 -2.39 2.58 0 2.58 0 0 11.70 0 11.70 -2.63 0 -2.58 0 -0.83 -2.10 c-1.22 -3.22 -3.02 -4.68 -6.43 -5.21 -3.51 -0.58 -9.45 -0.63 -10.33 -0.05 -0.54 0.29 -0.63 2.53 -0.49 10.67 0.15 9.99 0.19 10.28 1.27 11.45 0.93 0.97 1.80 1.27 4.39 1.56 4.78 0.44 11.21 -0.44 14.47 -1.95 3.12 -1.51 7.11 -5.26 8.53 -8.09 0.97 -1.85 1.07 -1.90 3.65 -1.90 2.49 0 2.68 0.10 2.97 1.32 0.34 1.27 -2.14 15.16 -3.22 17.93 l-0.49 1.22 -27.53 0 -27.53 0 0 -2.63z"/>
  <path d="M235.86 392.13 l0 -2.58 2.39 -1.02 c4.34 -1.80 4.19 -0.68 4.34 -28.65 0.10 -13.40 0 -25.10 -0.15 -25.97 -0.39 -2.24 -2.88 -4.87 -4.92 -5.26 l-1.66 -0.29 0 -2.88 0 -2.88 15.06 0 c16.57 0 15.64 -0.19 15.64 3.07 0 2.05 -0.44 2.58 -2.24 2.97 -1.75 0.39 -3.80 2.34 -4.53 4.34 -0.34 0.93 -0.54 9.70 -0.54 25.73 0 26.22 0 26.27 2.53 28.60 0.68 0.63 1.85 1.27 2.63 1.51 1.32 0.34 1.41 0.54 1.56 3.12 l0.15 2.78 -15.16 0 -15.11 0 0 -2.58z"/>
  <path d="M297.74 392.09 c0 -2.58 0.05 -2.68 1.66 -3.22 4.09 -1.32 4.43 -2.05 20.32 -41.91 5.17 -13.01 9.60 -23.93 9.84 -24.27 0.34 -0.44 1.71 -0.58 4.63 -0.49 l4.09 0.15 1.71 4.14 c0.93 2.29 3.41 8.33 5.51 13.40 2.10 5.12 6.92 16.81 10.72 26.07 3.80 9.26 7.55 17.84 8.33 19.05 0.93 1.46 2.24 2.68 3.90 3.56 l2.44 1.36 -0.15 2.24 -0.15 2.29 -15.11 0 -15.11 0 -0.15 -2.29 -0.15 -2.29 2.34 -1.12 c1.56 -0.73 2.39 -1.46 2.49 -2.14 0.15 -1.07 -3.51 -11.55 -4.43 -12.77 -0.34 -0.44 -2.78 -0.58 -10.23 -0.49 l-9.79 0.15 -2.05 5.12 c-1.17 2.83 -2.10 5.80 -2.14 6.63 0 1.71 1.46 3.36 3.56 3.85 1.22 0.34 1.32 0.54 1.32 2.97 l0 2.63 -11.70 0 -11.70 0 0 -2.63z m38.98 -27.87 c0 -0.15 -1.22 -3.26 -2.63 -6.92 -1.46 -3.65 -2.92 -7.31 -3.22 -8.14 -0.54 -1.41 -0.68 -1.17 -3.70 6.58 -1.71 4.43 -3.12 8.19 -3.12 8.43 0 0.19 2.88 0.34 6.33 0.34 3.51 0 6.33 -0.15 6.33 -0.29z"/>
  <path d="M195.17 308.85 c-3.56 -10.48 -7.60 -32.99 -10.43 -57.65 -2.14 -18.27 -2.63 -26.56 -2.68 -41.76 l-0.05 -13.45 -1.32 -0.93 c-1.12 -0.73 -1.36 -1.22 -1.36 -2.97 0 -1.80 0.19 -2.19 1.46 -2.92 1.61 -0.88 1.61 -0.93 2.39 -6.43 1.51 -11.11 12.28 -35.96 24.41 -56.33 1.90 -3.22 3.51 -6.24 3.65 -6.77 0.10 -0.54 0.63 -3.51 1.17 -6.58 1.12 -6.43 3.56 -15.11 5.21 -18.86 1.02 -2.44 1.22 -2.58 2.83 -2.58 1.66 0 1.75 0.10 1.75 1.66 0 0.88 -0.63 4.24 -1.46 7.41 -3.41 13.74 -3.31 33.82 0.29 48.05 1.95 7.75 6.38 18.76 8.72 21.59 0.78 0.97 0.78 0.93 0.49 -0.24 -0.15 -0.68 -0.44 -3.90 -0.58 -7.16 l-0.29 -5.99 1.75 0 c1.56 0 1.80 0.19 2.10 1.36 1.17 5.36 2.83 10.77 4.09 13.60 1.80 4 8.04 13.45 10.33 15.59 l1.66 1.61 3.22 -5.51 c1.80 -2.97 4.29 -7.60 5.51 -10.18 l2.19 -4.78 1.90 0 1.90 0 1.95 -5.46 c3.95 -11.21 6.58 -23.39 7.46 -34.70 0.68 -8.38 0.29 -23.78 -0.73 -29.77 -0.44 -2.39 -0.78 -5.02 -0.78 -5.75 0 -1.27 0.10 -1.36 1.80 -1.22 1.75 0.15 1.85 0.24 2.73 3.07 1.80 5.99 3.31 15.01 3.70 22.32 0.39 6.53 0.58 7.94 2 11.79 3.85 10.77 7.94 19.83 13.55 29.97 4.87 8.92 16.42 25.05 21.25 29.73 1.85 1.80 2.24 2.44 2.24 3.95 0 1.51 -0.19 1.85 -1.27 2.10 l-1.22 0.34 0.29 14.23 c0.44 17.30 -0.34 40.74 -1.71 52.73 -1.95 16.91 -4.53 31.82 -7.31 41.86 l-1.56 5.65 -3.85 0 -3.85 0 0 -1.90 c0 -1.07 0.88 -5.51 1.95 -9.84 1.07 -4.34 2.24 -9.45 2.58 -11.40 l0.68 -3.56 -3.61 -0.78 c-1.95 -0.44 -3.80 -0.78 -4.04 -0.78 -0.29 0 -0.49 1.56 -0.49 3.56 0 3.51 -1.07 11.45 -1.95 14.23 -0.24 0.83 -0.68 2.39 -0.97 3.56 l-0.54 2.05 -3.85 0 -3.90 0 0 -2.10 c0 -1.17 0.34 -3.22 0.73 -4.53 1.71 -5.75 3.36 -16.67 2.83 -18.62 -0.10 -0.49 -1.36 -1.66 -2.78 -2.68 -1.41 -1.02 -3.95 -3.26 -5.65 -4.97 l-3.07 -3.12 -0.97 2 c-1.32 2.63 -4.92 6.14 -10.82 10.53 -2.68 2 -4.97 3.70 -5.07 3.80 -0.10 0.10 2.34 2.88 5.36 6.14 9.06 9.75 9.21 9.94 9.21 11.84 l0 1.71 -4.58 0 -4.58 0 -2.05 -2.44 c-1.80 -2.14 -2.24 -2.44 -3.95 -2.44 -1.71 0 -1.90 -0.10 -1.90 -1.27 0 -1.95 -1.32 -4.34 -3.41 -5.99 -1.56 -1.22 -2.34 -1.51 -4.29 -1.51 -2.19 0 -2.58 0.15 -4.34 2.10 -1.07 1.17 -2.24 2.92 -2.53 3.90 -0.49 1.41 -0.88 1.80 -1.75 1.80 -0.78 0 -1.95 0.88 -3.70 2.92 l-2.53 2.92 -4.29 0 -4.34 0 0 -1.95 c0 -1.75 0.39 -2.44 3.75 -6.24 2.05 -2.34 5.26 -5.80 7.11 -7.75 1.90 -1.95 3.36 -3.61 3.22 -3.70 -0.10 -0.10 -1.27 -0.93 -2.63 -1.80 -6.19 -4.14 -11.60 -9.16 -13.21 -12.28 l-1.17 -2.29 -3.26 3.31 c-1.85 1.80 -4.24 4 -5.41 4.92 -1.75 1.41 -2.14 2.10 -2.39 3.75 -0.29 2.29 0.93 10.28 2.39 15.45 0.54 1.90 1.07 4.63 1.22 6.04 l0.24 2.53 -3.95 0 c-3.65 0 -4 -0.10 -4.43 -1.07 -1.27 -2.97 -2.97 -11.84 -3.26 -16.86 -0.24 -4.78 -0.39 -5.46 -1.07 -5.21 -0.44 0.19 -1.80 0.54 -3.02 0.83 l-2.24 0.54 0.83 4.68 c0.49 2.58 1.46 7.21 2.19 10.28 0.73 3.07 1.46 6.97 1.56 8.67 l0.24 3.02 -3.70 0 c-2.53 0 -3.80 -0.19 -3.95 -0.58z m60.43 -32.11 c6.09 -4.14 11.45 -8.58 11.45 -9.50 0 -0.88 0.39 -0.97 -7.26 1.12 -8.72 2.34 -11.70 2.34 -20.37 0 -4.48 -1.17 -6.48 -1.56 -6.48 -1.12 0 1.66 15.98 13.84 17.25 13.11 0.29 -0.15 2.73 -1.80 5.41 -3.61z m-53.99 -3.61 c4.24 -0.97 6.48 -2.44 11.89 -7.50 l4.09 -3.85 -2.19 -0.88 c-7.70 -3.12 -15.59 -7.60 -20.08 -11.50 -2.73 -2.34 -2.83 -2.34 -2.58 -1.02 0.15 0.73 0.93 6.38 1.71 12.57 1.80 13.35 1.80 13.50 2.88 13.21 0.44 -0.10 2.39 -0.58 4.29 -1.02z m103.65 0.39 c0.44 -1.56 1.71 -11.89 2.24 -18.66 0.29 -3.61 0.58 -7.16 0.63 -7.85 0.15 -1.17 -0.15 -1.02 -3.41 1.85 -2 1.71 -4.82 3.90 -6.38 4.87 -2.92 1.90 -14.28 7.46 -15.16 7.46 -1.12 0 -0.44 0.93 3.02 4.24 6.53 6.19 8.58 7.16 18.47 8.87 0.19 0 0.44 -0.34 0.58 -0.78z m-46 -13.84 c30.51 -8.63 42.20 -16.08 48.10 -30.65 1.66 -4.14 2.10 -7.41 2.10 -15.55 l0 -6.97 -1.22 0.78 c-0.63 0.44 -2.05 0.78 -3.17 0.78 -1.80 0 -1.95 -0.10 -1.95 -1.36 0 -0.78 0.49 -2.68 1.12 -4.29 2 -5.07 2 -5.31 0.19 -6.48 l-1.56 -0.97 -0.29 4.53 c-0.49 7.21 -3.17 12.04 -7.99 14.23 -1.95 0.93 -3.26 1.17 -6.58 1.17 -5.26 0 -7.41 -0.58 -9.79 -2.78 -3.70 -3.36 -5.31 -7.80 -5.31 -14.72 0 -2.49 -0.05 -2.58 -1.07 -2.24 -0.63 0.24 -2.19 0.39 -3.56 0.44 -2.34 0.05 -2.44 0 -2.58 -1.36 -0.24 -2.05 1.22 -5.46 3.12 -7.41 1.46 -1.46 1.56 -1.66 0.68 -1.66 -0.83 0 -0.97 -0.29 -0.97 -2.19 0 -2.05 0.10 -2.24 1.95 -3.17 2.49 -1.27 7.41 -2.44 10.38 -2.44 l2.29 0 0 1.90 0 1.90 7.46 0.24 c4.04 0.15 7.99 0.44 8.72 0.63 1.22 0.29 0.93 -0.34 -3.65 -7.16 -2.78 -4.14 -5.80 -8.87 -6.72 -10.57 l-1.66 -3.07 -5.99 0.15 -6.04 0.15 -1.66 4.87 c-2.05 6.09 -7.31 16.76 -10.23 20.71 -2.05 2.83 -2.29 2.97 -4 2.83 -1.71 -0.15 -1.90 0 -4.63 3.65 -2.49 3.26 -3.07 3.75 -4.34 3.75 -1.90 0 -5.95 -2.34 -8.43 -4.82 -1.36 -1.46 -2.29 -2 -3.36 -2 -1.51 0 -3.70 -1.41 -6.97 -4.58 -1.17 -1.07 -2.10 -1.71 -2.10 -1.36 0 0.34 -0.34 0.58 -0.78 0.58 -0.54 0 -0.15 0.63 1.17 1.90 2.05 2 3.02 4.34 3.02 7.26 l0 1.66 -2.53 -0.19 c-1.41 -0.10 -2.92 -0.39 -3.36 -0.58 -0.68 -0.29 -0.83 0.29 -1.07 4.43 -0.29 5.41 -0.93 7.41 -3.07 10.53 -2.34 3.31 -5.75 4.73 -11.31 4.73 -2.68 0 -5.17 -0.29 -6.63 -0.78 -5.46 -1.85 -9.06 -8.67 -9.06 -17.15 l0 -2.10 -1.51 0.78 c-0.78 0.44 -1.61 1.12 -1.75 1.51 -0.15 0.44 0.39 2.44 1.27 4.48 0.83 2.10 1.51 4.48 1.51 5.36 0 1.41 -0.15 1.56 -1.56 1.56 -0.88 0 -2.19 -0.34 -2.92 -0.68 l-1.36 -0.73 0 1.80 c0 4.63 1.07 15.74 1.75 18.13 1.22 4.24 4 9.02 7.36 12.67 7.55 8.14 20.37 14.23 42.54 20.22 3.61 0.97 6.82 1.85 7.07 1.95 0.93 0.34 4.39 -0.34 10.96 -2.24z m-52.53 -78.31 l7.65 -0.19 0.15 -1.80 0.15 -1.75 2.68 0 c1.46 0 3.80 0.19 5.21 0.39 l2.53 0.39 -1.75 -2.58 c-1.90 -2.78 -6.97 -12.91 -6.97 -13.89 0 -0.49 -1.85 -0.63 -7.55 -0.63 l-7.55 0 0 -1.66 c0 -1.66 0.05 -1.71 2.58 -2.19 1.36 -0.29 4.24 -0.73 6.33 -0.97 2.10 -0.24 3.90 -0.54 4 -0.63 0.10 -0.10 -0.19 -1.80 -0.73 -3.80 -0.49 -2 -1.27 -6.19 -1.71 -9.26 -0.49 -3.07 -0.88 -5.65 -0.93 -5.75 -0.24 -0.19 -10.92 22.03 -12.96 26.95 -2.83 6.82 -4.78 12.18 -5.65 15.59 -0.39 1.61 -0.83 3.26 -0.97 3.70 -0.19 0.68 0.39 0.63 3.80 -0.44 3.31 -0.97 5.41 -1.27 11.70 -1.46z m76.60 -27.97 c-0.97 -1.95 -2.29 -4.82 -2.83 -6.38 l-1.07 -2.78 -1.27 5.70 c-0.68 3.17 -1.22 5.80 -1.12 5.90 0.15 0.15 3.75 0.63 7.46 1.02 0.34 0 -0.10 -1.36 -1.17 -3.46z"/>
  <path d="M239.51 239.41 c-2.92 -1.51 -4.14 -3.07 -4.14 -5.36 0 -1.56 0.24 -2.19 0.93 -2.58 1.46 -0.78 3.56 -0.58 5.56 0.49 1.80 0.97 1.80 0.97 3.36 0 2.14 -1.27 6.14 -1.32 8.63 -0.05 1.80 0.93 1.85 0.93 3.26 0 1.36 -0.88 4.24 -1.22 5.75 -0.63 0.58 0.19 0.78 0.97 0.78 2.58 0 1.90 -0.24 2.53 -1.32 3.56 -3.17 2.92 -7.11 3.65 -10.62 1.85 l-1.95 -0.97 -2.29 0.97 c-2.73 1.17 -5.95 1.22 -7.94 0.15z"/>
  <path d="M177.43 304.32 c-1.66 -0.63 -3.65 -1.71 -4.39 -2.39 -0.78 -0.73 -1.90 -1.27 -2.68 -1.27 -0.73 0 -2 -0.34 -2.83 -0.78 -1.46 -0.78 -1.46 -0.83 -1.17 -3.51 0.24 -2.68 0.15 -3.02 -2.53 -8.48 -1.51 -3.12 -2.92 -5.70 -3.07 -5.70 -0.15 -0.05 -0.44 1.41 -0.63 3.26 -0.54 5.21 -0.63 5.46 -2.49 5.46 -1.51 0 -1.66 -0.15 -1.90 -1.80 -0.15 -1.02 -0.54 -6.87 -0.83 -13.06 -0.44 -9.26 -0.73 -11.89 -1.66 -15.20 -1.41 -4.92 -4 -17.30 -4.43 -21.59 -0.49 -4.43 -0.93 -2.68 -1.90 7.80 -1.12 12.43 -5.46 41.08 -6.87 45.95 -0.24 0.68 -0.88 0.83 -4.14 0.83 l-3.85 0 0 -1.71 c0 -0.93 0.97 -7.46 2.14 -14.47 2.68 -15.79 4.39 -28.99 5.65 -43.86 1.07 -12.67 2.14 -29.14 1.85 -29.34 -0.05 -0.10 -2.34 -1.27 -5.02 -2.68 -5.80 -3.07 -19.20 -11.89 -21.78 -14.33 -1.71 -1.56 -1.85 -1.90 -1.85 -4.39 0 -2.44 0.15 -2.83 1.66 -4.14 1.71 -1.46 17.59 -10.67 24.07 -13.94 l3.51 -1.75 0 -3.56 c0 -4.63 0.83 -16.52 1.46 -22.03 0.73 -5.99 3.65 -18.86 5.60 -24.80 1.41 -4.48 1.61 -5.60 1.80 -11.99 0.15 -6.33 0.29 -7.36 1.41 -9.75 1.66 -3.46 4.63 -7.07 8.48 -10.18 l3.02 -2.49 0.58 -4.29 c0.93 -6.68 2.49 -10.67 5.17 -13.11 1.95 -1.80 3.17 -2.34 8.67 -4.09 3.56 -1.12 6.82 -2.34 7.31 -2.78 0.49 -0.44 1.90 -2.24 3.12 -4 3.85 -5.46 6.29 -8.04 8.97 -9.50 l2.63 -1.46 11.01 0 11.06 0 2.10 -1.51 c5.21 -3.65 15.84 -9.55 20.27 -11.21 4.58 -1.75 7.02 -1.46 13.60 1.71 5.26 2.53 8.14 4.14 15.06 8.53 l3.90 2.49 10.96 0 c10.14 0 11.11 0.10 13.21 1.02 2.97 1.41 4.97 3.46 8.97 9.40 l3.36 4.97 6.38 1.95 c3.46 1.12 7.26 2.53 8.38 3.17 3.41 1.95 5.41 6.43 6.48 14.38 l0.58 4.19 3.36 2.73 c7.36 6.04 9.31 10.14 9.50 20.13 0.10 5.41 0.29 6.43 2.05 11.94 3.80 11.65 6.09 25.73 6.87 41.91 0.19 4.53 0.44 8.28 0.58 8.38 0.10 0.10 2.49 1.36 5.31 2.88 8.97 4.68 21.15 11.74 22.27 12.91 0.88 0.83 1.12 1.66 1.12 3.41 0 2.39 -0.73 4 -2.68 5.65 -2.34 2 -15.06 10.23 -20.08 13.01 -5.02 2.73 -5.51 3.17 -5.51 4.39 0 2.44 1.41 19.35 2.73 31.92 1.56 15.50 3.65 30.94 5.85 43.32 0.93 5.31 1.66 10.38 1.56 11.21 l-0.15 1.51 -3.75 0.15 -3.75 0.15 -0.49 -1.85 c-2.34 -8.82 -7.02 -43.22 -8.14 -59.84 l-0.39 -5.36 -0.63 5.85 c-0.97 8.58 -2.39 16.67 -4.39 24.37 -2.53 9.94 -2.58 10.14 -2.88 22.81 l-0.29 11.55 -1.85 0 -1.80 0 -0.63 -3.75 c-0.54 -3.56 -1.41 -6.24 -1.46 -4.58 0 0.34 -1.17 2.83 -2.63 5.46 -2.53 4.63 -2.63 4.92 -2.39 7.70 0.24 2.78 0.24 2.92 -1.12 3.61 -0.78 0.39 -2.10 0.88 -2.97 1.02 -0.88 0.19 -2.10 0.78 -2.78 1.32 -1.61 1.27 -7.26 3.36 -9.06 3.36 -1.36 0 -1.46 -0.10 -1.46 -1.90 0 -1.46 0.49 -2.49 2.44 -5.02 12.09 -16.03 19.64 -34.55 23.63 -58.04 4.24 -25.19 4.04 -60.82 -0.54 -87.52 -4.19 -24.41 -11.45 -42.69 -23.44 -58.92 -3.70 -4.97 -13.60 -14.81 -18.42 -18.18 -10.53 -7.46 -22.37 -12.28 -32.89 -13.40 -1.75 -0.19 -4.48 -0.83 -6.09 -1.46 -3.95 -1.56 -8.33 -2.63 -10.57 -2.63 -2.10 0 -10.28 2.49 -13.55 4.14 -1.56 0.78 -3.36 1.17 -6.33 1.32 -3.02 0.19 -5.56 0.73 -9.40 2 -24.02 8.14 -42.74 27.73 -54.09 56.62 -8.19 20.76 -12.48 50.48 -11.89 81.87 0.54 26.51 3.26 43.81 9.84 62.62 4.34 12.28 8.67 20.47 16.28 30.70 2.63 3.51 3.46 5.02 3.46 6.24 0 1.46 -0.10 1.56 -1.80 1.51 -1.02 0 -3.26 -0.54 -4.97 -1.17z m-31.24 -114.03 l0 -6.09 -6.82 0 -6.82 0 0 -1.90 c0 -1.90 0.05 -1.95 2.58 -2.88 4.19 -1.56 6.29 -2.19 9.11 -2.78 l2.68 -0.54 0.24 -2.78 c0.15 -1.51 0.10 -2.73 -0.05 -2.68 -1.02 0.44 -20.42 11.35 -21.30 12.04 -1.12 0.83 -1.07 0.83 4.14 4.29 5.36 3.56 15.20 9.36 15.89 9.40 0.19 0 0.34 -2.73 0.34 -6.09z m211.34 4.14 c3.90 -2.10 14.86 -8.87 16.62 -10.28 l1.12 -0.88 -1.85 -1.17 c-3.26 -2.05 -21.15 -11.70 -21.30 -11.50 -0.05 0.10 0 1.41 0.15 2.83 l0.29 2.68 3.31 0.58 c1.85 0.34 5.17 1.32 7.46 2.19 l4.09 1.56 0 1.85 0 1.90 -7.31 0 -7.31 0 0 2.10 c0 3.46 0.63 10.09 0.93 10.09 0.15 0 1.90 -0.88 3.80 -1.95z m-9.79 -56.38 c-0.68 -5.26 -1.90 -10.87 -2.29 -10.87 -0.24 0 -0.44 0.39 -0.44 0.88 -0.05 1.02 2.58 12.28 2.88 12.28 0.10 0 0.05 -1.02 -0.15 -2.29z m-192.73 -10.82 c-0.34 -1.90 -0.88 -0.24 -2 5.80 -1.32 7.41 -1.17 7.60 0.68 0.97 0.83 -3.07 1.46 -6.14 1.32 -6.77z m11.16 -25.63 c4.19 -7.50 10.14 -15.64 15.69 -21.49 l3.41 -3.61 -0.05 -5.95 c-0.05 -3.26 -0.19 -6.04 -0.29 -6.19 -0.29 -0.29 -6.58 1.85 -7.89 2.68 -2.78 1.75 -5.21 10.87 -5.12 19.10 l0.10 4.97 -1.71 0 c-1.41 0 -1.85 -0.24 -2.29 -1.32 -0.34 -0.78 -0.63 -1.46 -0.73 -1.56 -0.24 -0.39 -4.24 3.17 -5.56 4.97 -2.05 2.83 -2.34 4.43 -2.58 14.67 l-0.24 9.26 2.83 -6.33 c1.56 -3.46 3.56 -7.60 4.43 -9.21z m174.50 4.87 c-0.44 -10.82 -0.68 -11.60 -5.07 -16.08 l-2.83 -2.92 -0.68 1.61 c-0.58 1.32 -0.93 1.56 -2.39 1.56 l-1.75 0 0.05 -4.73 c0.10 -7.50 -1.85 -15.98 -4.14 -18.13 -0.63 -0.58 -3.02 -1.75 -5.21 -2.53 l-4.09 -1.41 -0.15 1.12 c-0.05 0.58 -0.29 3.17 -0.54 5.70 l-0.39 4.63 4 4.14 c9.11 9.50 16.32 20.56 21.83 33.58 0.73 1.71 1.41 3.02 1.56 2.92 0.10 -0.10 0 -4.39 -0.19 -9.45z m-32.21 -39.42 c-0.54 -2.34 -0.97 -4.63 -0.97 -5.07 0 -0.88 -5.90 -9.50 -8.19 -11.94 -2.29 -2.44 -3.46 -2.78 -9.50 -2.78 -3.07 0 -6.24 0.15 -7.07 0.29 -1.46 0.29 -1.46 0.34 -0.78 1.41 0.39 0.58 1.46 2.92 2.39 5.17 l1.66 4.04 4.58 2.05 c5.60 2.53 10.87 5.60 15.25 8.92 1.80 1.36 3.36 2.44 3.46 2.34 0.10 -0.15 -0.29 -2.10 -0.83 -4.43z m-103.06 -4.53 c2.68 -1.32 5.75 -2.73 6.87 -3.12 1.75 -0.68 2.05 -1.07 3.07 -3.90 0.63 -1.71 1.66 -4.14 2.29 -5.36 l1.12 -2.29 -1.07 -0.29 c-0.58 -0.15 -3.70 -0.29 -6.92 -0.29 -7.85 0 -8.09 0.15 -13.99 7.99 -4.63 6.09 -4.78 6.43 -4.78 8.87 0 1.36 -0.15 3.56 -0.34 4.82 l-0.29 2.29 4.58 -3.17 c2.53 -1.75 6.77 -4.24 9.45 -5.56z m25.58 -7.75 c1.75 -0.19 4.19 -0.83 5.46 -1.46 3.85 -1.95 7.46 -2.63 13.64 -2.63 6.43 0 9.75 0.54 13.35 2.24 1.61 0.78 4.09 1.32 7.21 1.66 2.63 0.24 4.97 0.58 5.17 0.73 0.24 0.15 -0.68 -1.90 -2 -4.48 l-2.44 -4.78 -6.43 -3.85 c-3.56 -2.14 -8.38 -4.82 -10.77 -6.04 l-4.34 -2.19 -3.70 1.80 c-2.05 1.02 -6.82 3.70 -10.67 5.99 -7.50 4.48 -7.07 4 -10.43 11.06 l-1.36 2.83 2.05 -0.29 c1.17 -0.15 3.51 -0.39 5.26 -0.58z"/>
 </g>
 <!-- <g fill="#ffffff">
  <path d="M0 249.50 l0 -249.50 249.50 0 249.50 0 0 249.50 0 249.50 -249.50 0 -249.50 0 0 -249.50z m251.21 196.53 c0.93 -3.22 2.34 -6.04 4.04 -8.28 1.36 -1.80 6.87 -4.78 9.84 -5.26 2.88 -0.49 2.44 -1.66 -0.97 -2.68 -7.07 -2.14 -11.11 -6.38 -13.16 -13.74 -0.34 -1.32 -0.88 -2.34 -1.17 -2.34 -0.34 0 -0.97 1.27 -1.46 2.83 -2.49 7.89 -5.75 11.21 -13.21 13.25 -1.66 0.49 -2.92 1.12 -2.92 1.46 0 0.34 1.75 1.22 4.09 2 6.48 2.14 9.55 5.31 11.70 12.04 0.63 2.10 1.36 3.51 1.75 3.51 0.39 0 1.02 -1.17 1.46 -2.78z m-46.49 -3.65 c1.51 -5.70 4.09 -8.38 9.36 -9.70 2.92 -0.73 3.22 -2.10 0.49 -2.63 -4.97 -0.93 -8.38 -4.29 -9.84 -9.84 -0.58 -2.10 -2 -2.97 -2 -1.22 0 1.41 -2.73 6.58 -4.19 7.99 -1.61 1.51 -5.31 3.26 -6.82 3.31 -1.17 0 -2 1.41 -1.02 1.66 7.85 2.29 9.55 3.95 12.28 11.89 0.44 1.17 1.17 0.54 1.75 -1.46z m92.49 -1.36 c1.27 -4.14 3.26 -6.29 7.11 -7.75 1.51 -0.58 3.02 -1.02 3.41 -1.02 0.39 0 0.73 -0.39 0.73 -0.93 0 -0.68 -0.49 -1.02 -1.80 -1.27 -4.63 -0.83 -8.19 -4.19 -9.65 -9.02 -0.49 -1.61 -1.12 -2.88 -1.36 -2.78 -0.29 0.10 -0.93 1.32 -1.41 2.78 -1.36 4.09 -3.07 6.14 -6.38 7.80 -1.61 0.78 -3.31 1.46 -3.75 1.46 -0.49 0 -1.12 0.34 -1.46 0.73 -0.63 0.78 -0.83 0.68 2.68 1.71 4.73 1.41 7.16 3.70 8.53 8.04 0.78 2.53 1.41 3.65 1.90 3.65 0.24 0 0.93 -1.51 1.46 -3.41z m-130.89 -6.38 c2.24 -2.78 0.19 -7.26 -3.31 -7.26 -4.39 0 -5.80 5.90 -1.95 8.19 1.36 0.83 4.24 0.34 5.26 -0.93z m171.97 0.97 c1.27 -0.68 2.34 -3.26 2 -4.97 -0.49 -2.44 -3.61 -3.95 -6.24 -2.97 -1.02 0.39 -2.19 2.73 -2.19 4.34 0 1.71 2.44 4.14 4.14 4.14 0.68 0 1.71 -0.24 2.29 -0.54z m103.94 -42.35 c3.12 -0.73 12.18 -4 12.77 -4.58 0.19 -0.19 1.61 -11.50 1.61 -12.82 0 -2.14 -1.75 -1.27 -4.24 2 -4.58 6.04 -9.40 9.11 -15.93 10.14 -11.31 1.75 -22.03 -5.65 -25.92 -17.84 -1.51 -4.78 -2.10 -13.25 -1.22 -18.71 1.17 -7.55 5.02 -14.52 10.14 -18.42 6.04 -4.58 15.35 -5.31 22.90 -1.80 3.12 1.46 7.41 5.95 9.16 9.65 1.02 2.24 1.46 2.73 2.34 2.58 1.07 -0.15 1.07 -0.29 1.07 -7.89 l0 -7.80 -2.92 -1.17 c-6.63 -2.58 -11.79 -3.61 -18.76 -3.70 -9.70 -0.10 -17.10 1.95 -23.83 6.48 -5.70 3.90 -9.55 8.48 -12.57 15.01 -4.39 9.50 -4.14 21.44 0.63 31.33 2.49 5.07 8.63 11.16 14.13 13.99 9.11 4.73 20.22 6.04 30.65 3.56z m-246.87 -0.19 c0.39 -0.24 0.54 -8.77 0.54 -29.58 0 -19.54 0.19 -29.97 0.54 -31.38 0.58 -2.34 2.39 -4.29 4.58 -4.97 1.07 -0.34 1.51 -0.83 1.61 -1.75 l0.15 -1.32 -10.77 0 -10.77 0 0.15 1.27 c0.10 0.97 0.58 1.41 2 1.90 2.19 0.73 3.56 1.90 4.68 3.90 0.68 1.27 0.78 3.75 0.93 17.79 0.10 8.97 0.10 17.93 0 19.93 l-0.15 3.61 -5.65 -6.77 c-16.91 -20.32 -31.33 -38.01 -32.84 -40.30 l-0.88 -1.32 -9.55 0.10 c-9.40 0.15 -9.55 0.15 -9.70 1.22 -0.15 0.88 0.29 1.32 2.14 2.19 1.27 0.63 2.97 1.95 3.75 2.92 1.22 1.56 1.51 2.44 1.90 6.33 0.24 2.49 0.39 14.18 0.29 25.97 -0.15 20.95 -0.19 21.49 -1.22 23.78 -0.93 2 -1.46 2.53 -3.56 3.41 -1.90 0.78 -2.44 1.27 -2.44 2.14 l0 1.12 10.48 0 c6.63 0 10.53 -0.19 10.57 -0.49 0 -0.24 0.05 -0.73 0.10 -1.02 0.05 -0.29 -1.17 -1.07 -2.63 -1.80 -2 -0.97 -2.88 -1.80 -3.65 -3.26 -0.93 -1.85 -0.97 -2.92 -1.12 -23.34 -0.10 -14.18 0 -21.30 0.34 -21.20 0.24 0.10 5.36 6.14 11.31 13.35 15.45 18.76 29.73 35.87 31.04 37.23 1.02 1.02 1.46 1.12 4.24 0.93 1.71 -0.15 3.31 -0.44 3.61 -0.58z m-99.36 -0.97 c0.78 -2.05 3.31 -15.11 3.07 -15.74 -0.15 -0.34 -0.78 -0.63 -1.41 -0.63 -0.83 0 -1.41 0.49 -2.14 1.90 -1.41 2.83 -5.41 6.58 -8.53 8.09 -3.41 1.61 -9.99 2.44 -16.08 2 -3.80 -0.24 -4.53 -0.44 -5.60 -1.51 l-1.22 -1.22 -0.15 -11.79 c-0.15 -9.31 -0.05 -11.84 0.49 -12.13 0.88 -0.58 9.75 -0.54 13.25 0.05 3.41 0.54 5.21 2 6.43 5.21 0.63 1.66 1.07 2.10 1.95 2.10 l1.17 0 0 -10.23 0 -10.23 -1.12 0 c-0.88 0 -1.32 0.54 -2.14 2.39 -1.71 4.04 -2.78 4.43 -12.18 4.43 l-7.94 0 0 -11.60 c0 -8.38 0.15 -11.74 0.58 -12.18 0.73 -0.73 16.42 -0.78 19.10 -0.05 2.44 0.68 5.90 3.90 7.41 6.92 0.97 1.85 1.41 2.34 2.29 2.19 1.07 -0.15 1.07 -0.24 0.88 -7.21 -0.10 -3.90 -0.39 -7.46 -0.63 -7.94 -0.39 -0.78 -2 -0.83 -25.14 -0.73 l-24.71 0.15 0 1.17 c0 0.88 0.39 1.32 1.46 1.66 2.10 0.68 4.04 2.68 4.63 4.68 0.63 2.34 0.63 51.36 0 53.60 -0.58 2.14 -2.63 4.24 -4.73 4.97 -1.22 0.39 -1.61 0.78 -1.61 1.71 l0 1.17 26.07 0 26.07 0 0.49 -1.17z m168.51 -0.15 c-0.10 -0.97 -0.49 -1.41 -1.56 -1.66 -0.78 -0.24 -1.95 -0.88 -2.63 -1.51 -2.53 -2.34 -2.53 -2.29 -2.53 -30.07 0 -17.06 0.19 -26.27 0.54 -27.19 0.78 -2.05 2.83 -4 4.63 -4.34 1.66 -0.29 2.29 -1.17 1.85 -2.39 -0.24 -0.63 -2.24 -0.73 -13.89 -0.73 l-13.60 0 0 1.41 c0 1.22 0.24 1.46 1.66 1.71 2.05 0.39 4.53 3.02 4.92 5.26 0.15 0.88 0.24 13.25 0.15 27.44 -0.15 29.63 0 28.26 -4.34 30.12 -1.85 0.83 -2.39 1.27 -2.39 2.14 l0 1.12 13.69 0 13.64 0 -0.15 -1.32z m55.16 0.15 c0 -0.93 -0.34 -1.27 -1.46 -1.51 -0.78 -0.19 -2 -1.02 -2.73 -1.85 -1.12 -1.32 -1.22 -1.80 -0.97 -3.90 0.19 -1.32 1.27 -4.73 2.44 -7.60 l2.05 -5.17 11.26 -0.15 c8.63 -0.10 11.35 0.05 11.70 0.49 0.68 0.93 4.58 11.55 4.87 13.35 0.34 2.14 -0.54 3.51 -3.07 4.63 -1.61 0.68 -2.19 1.17 -2.05 1.75 0.15 0.83 1.17 0.88 13.79 0.88 12.33 0 13.64 -0.10 13.79 -0.83 0.10 -0.54 -0.63 -1.22 -2.29 -2.14 -1.66 -0.88 -2.97 -2.10 -3.90 -3.56 -0.78 -1.22 -4.53 -9.79 -8.33 -19.05 -3.80 -9.26 -8.63 -20.95 -10.72 -26.07 -2.10 -5.07 -4.58 -11.11 -5.51 -13.40 l-1.71 -4.14 -2.63 -0.15 c-1.75 -0.10 -2.83 0.10 -3.17 0.49 -0.24 0.34 -4.68 11.26 -9.84 24.27 -15.89 39.86 -16.23 40.59 -20.32 41.91 -1.27 0.44 -1.66 0.83 -1.66 1.75 l0 1.17 10.23 0 10.23 0 0 -1.17z m-118.56 -85.67 c-0.15 -0.88 -0.93 -4.43 -1.75 -7.94 -1.56 -6.77 -2.97 -14.47 -2.97 -16.08 0 -0.83 0.68 -1.17 4.29 -2.10 2.34 -0.58 4.39 -1.07 4.53 -1.07 0.15 0 0.44 2.58 0.58 5.75 0.19 3.56 0.78 7.65 1.51 10.82 1.85 7.46 1.75 7.31 4.73 7.31 2.14 0 2.49 -0.10 2.24 -0.83 -2.63 -9.31 -3.95 -17.01 -3.65 -21.69 0.19 -3.46 0.19 -3.46 2.34 -5.17 1.22 -0.97 3.85 -3.41 5.85 -5.46 3.51 -3.51 6.77 -6.33 7.46 -6.33 0.68 0 0.29 1.17 -0.68 2.24 l-0.97 1.07 1.17 2.34 c1.80 3.46 7.41 8.58 14.38 13.06 1.90 1.27 3.51 2.39 3.51 2.49 0 0.10 -1.36 1.46 -2.97 3.02 -3.70 3.51 -13.11 14.13 -13.11 14.77 0 0.29 1.27 0.49 2.83 0.49 l2.83 0 2.88 -3.22 c2 -2.29 3.07 -3.12 3.70 -2.97 0.68 0.19 1.02 -0.19 1.46 -1.51 0.29 -0.93 1.46 -2.68 2.53 -3.85 l1.95 -2.10 3.85 0 c3.61 0 4 0.10 5.75 1.51 2.10 1.66 3.41 4.04 3.41 5.99 0 1.46 0.68 1.66 1.46 0.44 0.44 -0.78 0.88 -0.49 3.56 2.44 l3.07 3.31 3.12 -0.15 3.12 -0.15 -3.61 -4.14 c-2 -2.29 -5.90 -6.38 -8.63 -9.16 l-4.97 -4.97 1.36 -0.73 c1.71 -0.88 10.38 -7.36 12.77 -9.60 2.14 -1.95 4.09 -4.53 4.78 -6.38 0.49 -1.17 0.39 -1.51 -0.68 -2.49 -1.12 -1.02 -1.17 -1.75 -0.15 -1.75 0.19 0 2.97 2.49 6.14 5.51 3.12 2.97 6.53 5.99 7.55 6.68 1.17 0.83 1.90 1.71 2.10 2.68 0.54 2.92 -1.12 14.62 -2.97 20.91 -1.07 3.61 -1.07 3.70 1.71 3.70 l2.39 0 0.54 -2.05 c0.29 -1.17 0.73 -2.73 0.97 -3.56 0.93 -2.92 1.95 -10.82 1.95 -14.81 0 -3.07 0.15 -4 0.63 -3.80 0.34 0.10 2.88 0.73 5.60 1.32 4.63 1.07 4.97 1.22 4.97 2.34 0 1.66 -1.71 9.84 -3.70 17.74 -0.93 3.65 -1.66 6.92 -1.66 7.16 0 0.29 1.02 0.54 2.39 0.54 l2.39 0 1.56 -5.65 c2 -7.26 3.07 -12.43 4.82 -23.83 3.51 -22.27 4.78 -43.61 4.19 -70.27 l-0.34 -14.72 1.27 -0.34 c0.68 -0.15 1.27 -0.44 1.27 -0.63 0 -0.19 -1.02 -1.32 -2.24 -2.49 -4.82 -4.68 -16.37 -20.81 -21.25 -29.73 -5.60 -10.14 -9.70 -19.20 -13.55 -29.97 -1.36 -3.85 -1.61 -5.26 -2 -11.70 -0.19 -4 -0.83 -9.55 -1.36 -12.28 -1.22 -6.38 -2.97 -12.77 -3.56 -13.11 -0.24 -0.15 -0.29 0.24 -0.15 0.88 0.93 4.14 1.32 8.77 1.56 18.18 0.58 23.68 -2.14 38.35 -11.60 62.38 l-1.17 2.92 -0.24 -3.90 -0.24 -3.90 -2.53 5.21 c-1.36 2.88 -3.95 7.60 -5.70 10.57 -1.75 2.92 -3.22 5.56 -3.22 5.80 0 2.49 -4.43 -1.90 -9.50 -9.40 -4.53 -6.72 -6.33 -10.67 -8.09 -17.74 -0.78 -3.07 -1.56 -5.70 -1.66 -5.85 -0.93 -0.93 0.78 13.74 2.19 18.47 0.73 2.49 0.58 2.83 -0.54 1.46 -2.63 -3.22 -6.53 -9.70 -8.43 -13.99 -5.51 -12.48 -7.60 -23.34 -7.60 -39.28 0 -11.94 0.63 -18.62 2.44 -25.88 0.83 -3.22 1.36 -5.90 1.22 -6.04 -0.88 -0.88 -5.07 12.57 -6.63 21.34 -0.54 3.07 -1.07 6.04 -1.17 6.58 -0.15 0.54 -1.75 3.56 -3.65 6.77 -12.13 20.37 -22.90 45.22 -24.41 56.33 -0.78 5.51 -0.78 5.56 -2.39 6.43 -1.80 1.02 -1.85 1.85 -0.10 2.97 l1.32 0.93 0.05 13.69 c0 15.20 0.49 22.76 2.68 41.52 2.78 24.66 6.87 47.17 10.43 57.65 0.15 0.34 1.12 0.58 2.49 0.58 l2.29 0 -0.29 -1.56z m-18.62 -2.78 c-0.15 -0.24 -1.71 -2.39 -3.46 -4.78 -12.18 -16.32 -19.25 -34.45 -23.39 -60.08 -2.44 -15.16 -3.31 -41.76 -1.95 -60.77 0.88 -11.94 2.83 -26.12 4.97 -35.57 6.87 -30.85 21.93 -55.46 42.25 -69 9.50 -6.33 21.98 -11.16 28.85 -11.16 2.05 0 3.56 -0.34 5.12 -1.12 1.22 -0.58 4.34 -1.80 6.97 -2.63 7.11 -2.29 12.09 -2 20.08 1.12 1.61 0.63 4.34 1.27 6.09 1.46 10.53 1.12 22.37 5.95 32.89 13.40 4.82 3.36 14.72 13.21 18.42 18.18 11.99 16.23 19.25 34.50 23.44 58.92 4.63 26.95 4.82 64.96 0.54 90.44 -4 23.49 -11.55 42.01 -23.63 58.04 -1.36 1.75 -2.44 3.36 -2.44 3.56 0 0.58 5.99 -1.71 7.65 -2.92 0.73 -0.54 2.24 -1.17 3.31 -1.46 1.07 -0.29 2.39 -0.83 2.92 -1.22 0.93 -0.68 0.93 -0.73 0.10 -2.49 -0.88 -1.80 -0.88 -1.80 0.49 -4.09 0.73 -1.22 2.78 -5.17 4.53 -8.67 l3.22 -6.48 1.12 6.82 c0.63 3.75 1.32 6.82 1.51 6.82 0.19 0 0.49 -5.21 0.68 -11.55 0.29 -12.67 0.34 -12.86 2.88 -22.81 3.07 -11.99 4.97 -25.63 5.56 -39.62 0.15 -4.39 0.44 -7.75 0.63 -7.55 0.19 0.19 0.83 6.43 1.41 13.79 1.80 22.71 2.83 31.63 6.19 53.85 1.22 8.24 1.75 10.96 2.68 14.52 0.44 1.75 0.54 1.80 2.63 1.80 1.17 0 2.24 -0.19 2.39 -0.44 0.15 -0.24 -0.39 -4 -1.17 -8.38 -3.56 -19.39 -8.77 -65.74 -8.77 -77.92 l0 -2.83 5.51 -3.02 c6.48 -3.56 18.42 -11.45 20.71 -13.69 1.95 -1.90 2.39 -3.51 1.41 -4.97 -0.68 -1.07 -13.25 -8.48 -23.20 -13.64 -2.58 -1.36 -4.82 -2.68 -4.97 -2.92 -0.19 -0.24 -0.34 -2.78 -0.39 -5.65 -0.24 -14.86 -2.97 -32.21 -7.02 -44.39 -1.90 -5.75 -2.05 -6.43 -2.10 -11.94 -0.05 -9.84 -2 -13.99 -9.40 -20.08 l-3.36 -2.73 -0.58 -4.19 c-1.07 -7.94 -3.07 -12.43 -6.48 -14.38 -1.12 -0.63 -4.92 -2.05 -8.38 -3.17 l-6.38 -1.95 -3.36 -4.97 c-4 -5.95 -5.99 -7.99 -8.97 -9.40 -2.10 -0.97 -2.88 -1.02 -13.11 -0.88 l-10.82 0.15 -2.10 -1.41 c-6.72 -4.63 -17.59 -10.57 -22.12 -12.04 -2.34 -0.78 -2.49 -0.78 -5.65 0.44 -4.53 1.71 -15.40 7.75 -20.42 11.35 l-2.24 1.66 -10.92 -0.15 -10.87 -0.15 -2.63 1.46 c-2.68 1.46 -5.12 4.04 -8.97 9.50 -1.22 1.75 -2.63 3.56 -3.12 4 -0.49 0.44 -3.75 1.66 -7.31 2.78 -5.51 1.75 -6.72 2.29 -8.67 4.09 -2.68 2.44 -4.24 6.43 -5.17 13.11 l-0.58 4.29 -3.02 2.49 c-3.80 3.07 -6.82 6.68 -8.48 10.18 -1.17 2.49 -1.27 3.26 -1.36 9.75 -0.10 6.53 -0.19 7.41 -1.61 11.40 -2 5.60 -4.68 17.10 -5.60 23.93 -0.83 5.99 -1.71 18.13 -1.71 23.49 l0 3.56 -3.51 1.75 c-6.48 3.26 -22.37 12.48 -24.07 13.94 -2.24 1.95 -2.19 3.41 0.19 5.65 2.58 2.44 16.62 11.60 22.17 14.47 l4.73 2.44 0 2.44 c0 3.65 -0.88 17.10 -1.95 29.87 -1.27 14.81 -2.97 28.07 -5.65 43.86 -1.17 7.02 -2.14 12.91 -2.14 13.01 0 0.15 1.07 0.24 2.39 0.24 2.88 0 2.44 0.93 4.39 -9.99 3.12 -17.35 5.99 -40.93 7.21 -58.72 0.44 -6.43 0.24 -7.16 2.10 8.77 1.07 9.16 3.22 20.47 5.12 26.95 0.93 3.31 1.22 5.95 1.66 15.20 0.54 11.16 0.93 15.16 1.36 14.67 0.39 -0.34 1.61 -9.55 1.66 -12.48 l0.05 -2.68 1.51 3.41 c0.83 1.90 2.97 6.29 4.73 9.75 3.17 6.14 3.22 6.38 2.63 8.04 -0.34 0.93 -0.63 1.85 -0.63 2.05 -0.10 0.68 2.92 1.90 3.95 1.61 0.68 -0.24 1.41 0.10 2.58 1.22 1.85 1.75 9.16 4.82 8.28 3.46z"/>
  <path d="M321.77 364.41 c0.39 -0.88 2.39 -6.04 4.48 -11.45 2.10 -5.46 3.95 -9.89 4.14 -9.89 0.15 0 0.58 0.83 0.93 1.85 0.68 1.95 6.33 16.23 7.55 19.25 l0.78 1.80 -9.26 0 -9.26 0 0.63 -1.56z"/>
  <path d="M249.35 284.73 c-0.19 -0.15 -0.34 -0.68 -0.34 -1.17 0 -0.49 -2.39 -2.49 -6.43 -5.31 -3.56 -2.49 -7.50 -5.51 -8.77 -6.72 -2.14 -2.10 -2.34 -2.44 -2.34 -4.58 0 -1.27 0.19 -2.34 0.44 -2.34 0.24 0 3.80 0.88 7.89 2 4.09 1.07 8.43 1.95 9.65 2 1.95 0 8.77 -1.56 16.32 -3.80 1.32 -0.39 2.49 -0.68 2.58 -0.68 0.10 0 0.15 1.17 0.15 2.63 l0 2.63 -3.26 2.78 c-1.85 1.51 -5.75 4.39 -8.77 6.43 -3.90 2.63 -5.60 4.09 -5.95 5.12 -0.49 1.41 -0.63 1.56 -1.17 1.02z"/>
  <path d="M194.48 273.28 c-0.54 -3.26 -3.22 -23.44 -3.75 -28.56 l-0.34 -3.02 3.85 3.85 c2.14 2.10 5.41 4.82 7.31 6.04 3.95 2.58 12.18 6.68 16.37 8.24 1.56 0.54 2.83 1.17 2.83 1.36 0 0.63 -9.60 9.55 -11.99 11.11 -1.95 1.32 -5.21 2.34 -12.18 3.75 l-1.56 0.29 -0.54 -3.07z"/>
  <path d="M300.96 275.28 c-8.63 -1.61 -9.99 -2.39 -17.49 -9.65 l-4.73 -4.58 4.24 -1.80 c11.99 -5.02 20.13 -10.48 25.05 -16.67 l1.90 -2.44 0 2.53 c0 5.56 -2.29 28.70 -3.26 32.55 -0.15 0.58 -0.39 1.07 -0.58 1.02 -0.15 -0.05 -2.49 -0.44 -5.12 -0.97z"/>
  <path d="M246.82 263.44 c-0.24 -0.15 -3.46 -1.02 -7.07 -2 -22.17 -5.99 -34.99 -12.09 -42.54 -20.22 -3.36 -3.65 -6.14 -8.43 -7.36 -12.67 -0.83 -2.97 -1.75 -13.84 -1.75 -20.91 l0 -4.63 1.36 1.27 c1.27 1.27 4.04 2.92 4.34 2.63 0.10 -0.05 -0.63 -1.95 -1.56 -4.24 -1.90 -4.63 -2.10 -6.29 -0.83 -7.36 0.83 -0.78 5.65 -3.31 6.24 -3.31 0.19 0 0.19 1.22 0 2.68 -0.93 7.94 3.02 15.98 8.77 17.98 5.70 1.95 11.94 0.29 15.06 -4.04 2.24 -3.02 2.92 -5.75 2.92 -11.35 0 -2.63 0.10 -4.78 0.24 -4.78 0.15 0 1.61 0.49 3.26 1.07 1.71 0.58 3.17 0.93 3.31 0.83 0.10 -0.15 0 -1.07 -0.29 -2.05 -1.07 -3.95 -6.53 -7.41 -14.03 -8.92 -7.94 -1.56 -20.27 -0.15 -26.41 2.97 -1.36 0.73 -1.41 0.73 -1.41 -0.34 0 -1.75 2.24 -10.48 3.65 -14.28 3.70 -10.04 16.42 -37.08 18.96 -40.45 0.68 -0.93 0.73 -0.78 0.78 2.10 0 4.34 1.32 12.96 2.88 18.91 0.73 2.78 1.17 5.07 0.97 5.07 -0.19 0 -2.92 0.34 -5.99 0.73 -8.87 1.17 -8.92 1.66 -0.15 1.66 5.75 0.05 7.65 0.19 7.65 0.68 0 1.22 4.97 10.87 7.60 14.77 1.51 2.24 4.04 5.46 5.60 7.21 2.88 3.17 7.60 6.97 8.04 6.53 0.10 -0.15 0 -0.88 -0.29 -1.66 -0.44 -1.12 0.24 -0.68 3.26 2.29 2.10 2.05 4.82 4.34 6.09 5.02 l2.24 1.32 3.41 -4.53 c1.85 -2.49 4 -5.46 4.73 -6.63 0.73 -1.12 1.41 -2 1.51 -1.95 0.05 0.10 -0.10 1.32 -0.39 2.78 -0.24 1.41 -0.34 2.68 -0.19 2.83 0.10 0.15 1.22 -1.12 2.44 -2.78 2.92 -3.95 8.19 -14.62 10.23 -20.71 l1.66 -4.87 7.50 -0.15 7.46 -0.10 1.66 2.97 c2.58 4.68 9.79 15.40 13.11 19.44 1.66 2 2.92 3.65 2.83 3.75 -0.05 0.05 -1.41 -0.34 -3.02 -0.88 -10.87 -3.85 -24.27 -2.97 -31.72 2.10 -2.14 1.41 -4.92 6.04 -4.09 6.87 0.24 0.24 1.90 -0.10 3.95 -0.83 l3.51 -1.27 -0.34 3.02 c-0.39 3.95 0.49 9.36 1.95 11.89 3.51 5.99 10.43 8.24 16.57 5.36 2.88 -1.32 4.78 -3.41 6.53 -7.11 1.12 -2.34 1.27 -3.31 1.27 -7.89 0 -2.92 0.05 -5.26 0.15 -5.26 0.54 0 4.53 2.19 5.65 3.07 1.41 1.17 1.41 1.17 0.78 3.56 -0.39 1.32 -1.17 3.65 -1.75 5.21 -1.32 3.41 -0.78 3.61 2.39 0.83 1.22 -1.07 2.34 -1.95 2.49 -1.95 0.49 0 0.34 19 -0.15 22.03 -0.58 3.36 -2.29 7.75 -4.48 11.40 -6.58 10.87 -18.27 17.30 -45.51 25.10 -6.09 1.75 -12.28 2.73 -13.64 2.19z m0.10 -26.17 l2.92 -1.51 1.90 1.22 c3.56 2.34 5.75 2.10 9.11 -1.02 2.78 -2.63 0.73 -4.53 -2.58 -2.34 -2.34 1.56 -2.39 1.56 -5.36 0.05 -3.02 -1.56 -3.95 -1.51 -6.87 0.10 l-2.34 1.36 -2.58 -1.32 c-2.53 -1.32 -4.29 -1.22 -4.29 0.24 0 1.32 4.53 4.68 6.38 4.73 0.44 0 2.10 -0.68 3.70 -1.51z m-18.96 -54.38 c-0.34 -1.85 -10.43 -4.92 -11.74 -3.61 -0.58 0.58 -0.29 0.73 4.19 1.75 1.80 0.39 4.09 1.17 5.12 1.66 2.24 1.22 2.63 1.22 2.44 0.19z m44.83 -0.10 c0.97 -0.49 3.41 -1.41 5.36 -2 1.90 -0.58 3.51 -1.27 3.51 -1.51 0 -0.63 -1.22 -0.54 -4.78 0.29 -3.75 0.88 -6.92 2.44 -6.92 3.41 0 0.97 0.63 0.93 2.83 -0.19z"/>
  <path d="M286.05 158.81 c-0.93 -0.19 -3.75 -0.63 -6.29 -0.93 -2.53 -0.29 -4.73 -0.58 -4.82 -0.68 -0.10 -0.15 0.49 -3.17 1.32 -6.77 0.83 -3.65 1.66 -7.94 1.80 -9.55 0.19 -1.66 0.49 -2.97 0.63 -2.97 0.19 0 1.17 2.24 2.19 5.02 1.07 2.73 3.17 7.55 4.78 10.72 1.56 3.12 2.68 5.70 2.49 5.65 -0.24 -0.05 -1.17 -0.24 -2.10 -0.49z"/>
  <path d="M351.64 194.24 c-0.15 -2.97 -0.29 -6.77 -0.29 -8.43 l0 -3.07 7.31 0 c4.04 0 7.31 -0.19 7.31 -0.44 0 -0.63 -7.80 -3.41 -11.55 -4.14 l-3.31 -0.58 -0.54 -5.12 c-0.29 -2.78 -0.49 -5.12 -0.44 -5.17 0.10 -0.15 3.17 1.46 13.89 7.31 10.04 5.46 14.62 8.14 14.62 8.58 -0.10 0.88 -13.55 9.45 -21.49 13.69 l-5.17 2.73 -0.34 -5.36z"/>
  <path d="M141.07 196.09 c-6.48 -3.56 -19.74 -12.23 -19.74 -12.86 0 -0.73 27.14 -15.89 27.63 -15.40 0.15 0.15 0.10 2.39 -0.15 5.02 l-0.44 4.73 -2.68 0.54 c-4.53 0.93 -11.70 3.46 -11.70 4.19 0 0.24 2.92 0.44 6.77 0.44 3.75 0 6.92 0.15 7.02 0.39 0.29 0.63 -0.24 16.18 -0.58 16.18 -0.15 0 -2.92 -1.46 -6.14 -3.22z"/>
  <path d="M148.87 157.79 c1.22 -18.08 2.29 -25.97 4.39 -33.72 0.63 -2.39 1.27 -4.39 1.36 -4.48 0.05 -0.10 0.68 1.85 1.32 4.34 l1.12 4.53 -1.75 6.58 c-1.71 6.33 -4.29 18.96 -4.97 24.22 -0.24 1.71 -0.54 2.53 -1.02 2.53 -0.58 0 -0.63 -0.73 -0.44 -4z"/>
  <path d="M349.74 161.44 c-0.15 -0.24 -0.63 -2.92 -1.07 -5.99 -0.97 -6.77 -2.78 -15.64 -4.48 -22.07 l-1.27 -4.78 1.07 -3.51 c0.63 -1.95 1.27 -3.90 1.46 -4.43 0.44 -1.22 2.63 8.24 3.90 17.01 0.83 5.51 2 19.30 2 23.29 0 0.83 -1.17 1.17 -1.61 0.49z"/>
  <path d="M339.41 118.56 c-1.80 -5.26 -6.92 -15.59 -10.23 -20.86 -10.23 -16.28 -24.32 -28.95 -40.06 -36.01 l-4.58 -2.05 -1.66 -4 c-0.88 -2.19 -2.34 -5.12 -3.17 -6.48 -0.83 -1.36 -1.36 -2.63 -1.22 -2.78 0.58 -0.63 17.74 -0.73 19.20 -0.15 1.85 0.78 3.65 2.78 7.60 8.28 3.46 4.78 3.75 5.70 5.70 16.28 0.29 1.61 0.68 2.68 0.93 2.44 0.24 -0.24 0.49 -2.88 0.54 -5.90 0.15 -4.68 0.24 -5.46 0.93 -5.46 0.44 0 2.97 0.68 5.60 1.56 6.24 2 7.46 3.17 8.87 8.43 1.36 5.07 2.14 11.79 1.80 15.01 -0.29 2.34 -0.24 2.49 0.44 1.61 0.44 -0.54 0.93 -1.66 1.07 -2.58 0.15 -0.88 0.49 -1.61 0.68 -1.61 0.88 0 8.19 7.70 9.02 9.50 0.73 1.56 0.97 3.65 1.22 10.23 0.15 4.58 0.44 8.58 0.63 8.87 0.39 0.58 -0.97 8.48 -1.56 9.06 -0.24 0.19 -0.97 -1.32 -1.75 -3.41z"/>
  <path d="M157.89 119.39 c-0.63 -2.53 -0.63 -3.65 -0.34 -14.38 0.19 -7.80 0.49 -9.45 2.05 -12.18 1.12 -1.95 7.50 -8.04 8.43 -8.04 0.24 0 0.63 0.73 0.78 1.61 0.15 0.93 0.58 2.05 0.93 2.49 0.54 0.73 0.63 0.10 0.63 -4.14 0 -7.75 2.29 -16.86 4.73 -18.91 0.78 -0.63 7.80 -3.12 10.33 -3.65 l1.46 -0.29 0 7.99 -0.05 7.99 -3.46 3.65 c-9.11 9.60 -16.81 21.93 -22.61 36.30 -0.88 2.19 -1.75 4 -1.95 4 -0.19 0 -0.58 -1.07 -0.93 -2.44z"/>
  <path d="M190.05 72.46 c0 -1.17 0.15 -4.48 0.34 -7.36 l0.29 -5.17 4.68 -6.24 c3.17 -4.14 5.21 -6.48 6.38 -7.02 1.36 -0.73 3.02 -0.88 8.58 -0.88 3.80 0 7.89 0.15 9.11 0.29 l2.24 0.34 -1.85 3.70 c-1.02 2.05 -2.39 5.12 -3.02 6.82 -1.02 2.83 -1.32 3.22 -3.07 3.90 -6.68 2.58 -14.03 6.72 -20.37 11.60 -1.51 1.17 -2.88 2.10 -3.02 2.10 -0.15 0 -0.29 -0.97 -0.29 -2.10z"/>
  <path d="M220.31 58.14 c0 -0.19 1.51 -3.36 3.31 -6.97 l3.31 -6.58 5.80 -3.56 c6.82 -4.14 15.84 -8.87 17.01 -8.87 1.22 0 9.31 4.19 16.67 8.58 l6.43 3.85 3.46 6.72 c1.85 3.65 3.26 6.68 3.07 6.68 -0.24 0 -1.61 -0.34 -3.07 -0.73 -1.46 -0.39 -4.73 -0.97 -7.26 -1.22 -2.97 -0.34 -5.51 -0.93 -7.07 -1.66 -6.82 -3.22 -17.30 -3.02 -24.07 0.39 -1.46 0.73 -3.61 1.27 -5.95 1.51 -3.22 0.29 -8.38 1.27 -10.82 2 -0.49 0.15 -0.88 0.10 -0.83 -0.15z"/>
 </g> -->
</svg>